<?xml version="1.0" standalone="no"?>
<!DOCTYPE svg PUBLIC "-//W3C//DTD SVG 20010904//EN"
 "http://www.w3.org/TR/2001/REC-SVG-20010904/DTD/svg10.dtd">
<svg version="1.0" xmlns="http://www.w3.org/2000/svg"
 width="100.000000pt" height="100.000000pt" viewBox="0 0 100.000000 100.000000"
 preserveAspectRatio="xMidYMid meet">
<metadata>
Created by potrace 1.14, written by Peter Selinger 2001-2017
</metadata>
<g transform="translate(0.000000,100.000000) scale(0.100000,-0.100000)"
fill="#000000" stroke="none">
<path d="M429 841 c6 -11 16 -23 21 -26 6 -4 8 -11 5 -16 -4 -5 -2 -9 4 -9 5
0 13 -9 16 -20 13 -41 27 -45 141 -44 148 2 194 -23 194 -109 0 -31 -7 -46
-33 -72 -31 -31 -38 -33 -91 -31 -31 1 -59 -1 -61 -4 -3 -4 25 -58 62 -121 36
-63 77 -134 90 -159 42 -77 46 -79 133 -78 l78 2 -14 28 c-8 15 -13 29 -12 31
2 1 -3 9 -10 17 -8 8 -35 53 -62 100 -38 68 -45 88 -37 102 6 9 13 15 15 13 6
-5 62 57 63 70 1 5 1 13 0 18 0 4 3 7 8 7 5 0 8 35 6 78 -3 100 -2 95 -26 123
-12 13 -29 33 -38 44 -9 12 -34 32 -56 45 -38 24 -49 25 -223 28 -182 4 -183
3 -173 -17z"/>
<path d="M284 842 c-5 -4 -24 -29 -41 -56 l-31 -49 26 -51 c14 -28 31 -54 36
-58 6 -4 7 -8 3 -8 -5 0 0 -12 11 -27 10 -16 45 -75 77 -133 32 -58 63 -108
69 -112 6 -4 8 -8 4 -8 -6 0 86 -167 101 -183 5 -4 40 -7 80 -5 l72 3 -30 47
c-16 25 -27 49 -24 52 4 3 1 6 -5 6 -6 0 -14 10 -18 22 -3 12 -21 44 -38 72
-18 28 -37 62 -44 76 -7 14 -20 39 -30 55 -10 17 -30 50 -44 75 -43 77 -70
124 -89 155 -10 17 -23 39 -28 51 -21 46 -48 82 -57 76z"/>
<path d="M56 478 c-10 -18 -28 -49 -39 -68 -11 -19 -17 -32 -12 -28 4 4 15 3
25 -2 10 -5 20 -6 24 -3 9 10 46 11 46 2 0 -4 15 -3 32 2 20 5 34 5 36 0 2 -5
15 -6 33 -1 16 5 29 5 29 0 0 -10 38 -1 46 12 3 5 -1 20 -10 33 -9 13 -16 31
-16 38 0 32 -35 47 -106 47 -68 0 -70 -1 -88 -32z"/>
</g>
</svg>
