<svg xmlns="http://www.w3.org/2000/svg" width="74.101" height="97.169" viewBox="0 0 74.101 97.169">
  <g id="Group_1" data-name="Group 1" transform="translate(-80.918 -136.764)">
    <path id="Path_1" data-name="Path 1" d="M185.482,545.81a33.364,33.364,0,0,1-18.291,5.875c-9.536,0-17.4-4.824-22.339-12.579-.3-.474-.2-.861.079-1,.246-.121.63-.044.987.345,6.478,10.557,20.352,13.556,35.706,2.446Z" transform="translate(-52.851 -332.686)" fill="#0e1114" fill-rule="evenodd"/>
    <path id="Path_2" data-name="Path 2" d="M398.495,365.827q-.113.974-.263,1.958c-2.131,13.788-9.586,25.99-19.285,33.449L375,396.214a51.289,51.289,0,0,0,16.729-27.631q.3-1.385.488-2.756Z" transform="translate(-243.805 -189.902)" fill="#282c2e" fill-rule="evenodd"/>
    <path id="Path_3" data-name="Path 3" d="M419.243,165.01c8.395,6.2,13.368,17.769,12.65,31.251h-6.252c.489-10.323-3.744-19.635-10.669-25.133Z" transform="translate(-276.942 -23.417)" fill="#4d5051" fill-rule="evenodd"/>
    <path id="Path_4" data-name="Path 4" d="M202.336,136.768A24.612,24.612,0,0,1,215,139.917l-4.211,6.03a23.288,23.288,0,0,0-12.021-3.412c-10.874-.074-19.716,5.279-25.956,13.119-.636.8-1.48.084-.87-.758,7.767-10.721,18.966-17.919,30.394-18.129" transform="translate(-75.287 0)" fill="#86888a" fill-rule="evenodd"/>
    <path id="Path_5" data-name="Path 5" d="M84.9,246.273s-2.449-2.37.158-3.871,6.953.869,8.533,4.74c1.387,3.4,10.152,20.065,10.291,21.387.44,4.179,3.062,3.737,3.851-.213.792-3.967,12.878-31.287,12.878-31.287s2.252-5.491,6.834-4.977a8.955,8.955,0,0,1,5.546,2.359c3.645,3.7,2.062-6.173-7.166-4.769-3.634.553-6.794,2.844-9.639,9.876l-9.4,23.386a1.284,1.284,0,0,1-1.264-.711c-.316-.79-8.592-19.416-8.592-19.416H100.6s1.7.04,1.738-.948.02-2.834.02-2.834l-2.113.069v.79c0,1.936-8.483.264-9.816.039-11.874-2-10.532,6.812-7.15,7.466,1.225.237,1.975-.474,1.619-1.086" transform="translate(0 -76.886)" fill="#616465" fill-rule="evenodd"/>
    <path id="Path_6" data-name="Path 6" d="M175.7,282.954c.118-3.553,1.422-6.044,11.061-5.056,6.986.716,12.25.975,15.069.582,3.4-.473,3.034-3.229,4.88-3.229.748,0,1.06,1.276.825,2.4-1.067,5.117-7.1.67-8.8,4.828-3.665,8.918-10.4,28.906-17.851,34.428-6.736,4.988-14.485,1.154-14.147-7.645a1.9,1.9,0,0,1,1.9-1.738c1.738,0,1.5,2.054,1.58,3.239s.632,6.32,4.74,6.083,6.479-4.5,9.481-10.982,9.323-23.979,9.323-23.979.277-1.363-1.027-1.323-11.693-.02-11.693-.02c-3.9.332-1.029,4.559-1.4,6.143-.383,1.62-4.058.1-3.931-3.733" transform="translate(-71.132 -114.811)" fill="#616465" fill-rule="evenodd"/>
    <path id="Path_7" data-name="Path 7" d="M193.254,665.838a.92.92,0,0,0,.123.5,1,1,0,0,0,.328.322,1.968,1.968,0,0,0,.476.208c.18.054.369.105.566.153.263.064.523.135.778.213a2.466,2.466,0,0,1,.683.323,1.552,1.552,0,0,1,.485.535,1.73,1.73,0,0,1,.185.848,1.959,1.959,0,0,1-.2.911,1.679,1.679,0,0,1-.542.629,2.422,2.422,0,0,1-.83.366,4.4,4.4,0,0,1-1.057.12,4.533,4.533,0,0,1-.54-.033c-.183-.021-.36-.052-.526-.089a4.225,4.225,0,0,1-.454-.127,1.789,1.789,0,0,1-.321-.142v-.757a3.125,3.125,0,0,0,.411.169c.153.05.31.093.473.13s.325.063.492.083a3.755,3.755,0,0,0,.465.03,3.571,3.571,0,0,0,.679-.061,1.708,1.708,0,0,0,.565-.2,1.047,1.047,0,0,0,.387-.388,1.209,1.209,0,0,0,.142-.617.926.926,0,0,0-.125-.5,1.032,1.032,0,0,0-.332-.328,1.991,1.991,0,0,0-.48-.212c-.18-.053-.371-.1-.57-.15-.265-.062-.522-.13-.774-.206a2.491,2.491,0,0,1-.675-.317,1.536,1.536,0,0,1-.477-.523,1.658,1.658,0,0,1-.18-.818,2.016,2.016,0,0,1,.182-.89,1.74,1.74,0,0,1,.5-.616,2.1,2.1,0,0,1,.735-.361,3.36,3.36,0,0,1,.9-.116,4.733,4.733,0,0,1,1.873.376v.766a5.966,5.966,0,0,0-.87-.289,4.147,4.147,0,0,0-.963-.116,2.4,2.4,0,0,0-.669.083,1.3,1.3,0,0,0-.473.239.965.965,0,0,0-.279.374,1.282,1.282,0,0,0-.092.49m-4.38,1.991q.623.9,1.233,1.847h.029q-.064-.99-.066-2.02v-3.614h.829v6.792h-.823l-2.664-3.787q-.691-.988-1.233-1.847h-.03q.065.927.065,2.167v3.467h-.828v-6.792h.823Zm-4.961-.386a4.292,4.292,0,0,1-.223,1.416,3.255,3.255,0,0,1-.64,1.112,2.9,2.9,0,0,1-1,.728,3.176,3.176,0,0,1-1.313.262,3.283,3.283,0,0,1-1.344-.262,2.819,2.819,0,0,1-1.005-.728,3.242,3.242,0,0,1-.629-1.112,4.384,4.384,0,0,1-.218-1.416,4.294,4.294,0,0,1,.225-1.424,3.306,3.306,0,0,1,.639-1.114,2.855,2.855,0,0,1,1-.728,3.2,3.2,0,0,1,1.318-.262,3.257,3.257,0,0,1,1.338.262,2.829,2.829,0,0,1,1,.728,3.24,3.24,0,0,1,.629,1.114A4.437,4.437,0,0,1,183.913,667.443Zm-.873,0a3.765,3.765,0,0,0-.177-1.208,2.534,2.534,0,0,0-.49-.873,2.036,2.036,0,0,0-.736-.53,2.395,2.395,0,0,0-1.821,0,2.022,2.022,0,0,0-.737.53,2.512,2.512,0,0,0-.49.873,3.759,3.759,0,0,0-.178,1.208,3.693,3.693,0,0,0,.18,1.206,2.567,2.567,0,0,0,.494.87,2,2,0,0,0,.735.528,2.367,2.367,0,0,0,.917.177,2.3,2.3,0,0,0,.906-.177,2.022,2.022,0,0,0,.731-.528,2.532,2.532,0,0,0,.49-.87A3.747,3.747,0,0,0,183.04,667.443Zm-7.8,3.391v-6.792h.828v6.792Zm-3.336,0h-.826v-6.045h-2.27v-.747h5.366v.747H171.9Zm-6.785-.61a2.291,2.291,0,0,0,.657-.085,1.653,1.653,0,0,0,.5-.244,1.442,1.442,0,0,0,.355-.378,1.876,1.876,0,0,0,.219-.49,2.008,2.008,0,0,0,.071-.372,3.916,3.916,0,0,0,.019-.4v-4.214h.828v4.193c0,.16-.009.324-.026.5a3.1,3.1,0,0,1-.081.482,2.542,2.542,0,0,1-.289.7,1.931,1.931,0,0,1-.5.553,2.374,2.374,0,0,1-.743.365,3.5,3.5,0,0,1-1.017.132,3.555,3.555,0,0,1-.981-.121,2.363,2.363,0,0,1-.723-.338,1.925,1.925,0,0,1-.5-.513,2.56,2.56,0,0,1-.3-.646,3.223,3.223,0,0,1-.109-.544,5.3,5.3,0,0,1-.033-.563v-4.193h.828v4.214a3.4,3.4,0,0,0,.033.469,2.249,2.249,0,0,0,.1.438,1.545,1.545,0,0,0,.591.776A1.9,1.9,0,0,0,165.118,670.223Zm-7.207-6.182v6.045h3.314v.747h-4.143v-6.792Zm-2.3,3.4a4.287,4.287,0,0,1-.223,1.416,3.255,3.255,0,0,1-.639,1.112,2.894,2.894,0,0,1-1,.728,3.176,3.176,0,0,1-1.313.262,3.284,3.284,0,0,1-1.344-.262,2.821,2.821,0,0,1-1.005-.728,3.248,3.248,0,0,1-.629-1.112,4.39,4.39,0,0,1-.218-1.416,4.29,4.29,0,0,1,.225-1.424,3.3,3.3,0,0,1,.639-1.114,2.855,2.855,0,0,1,1-.728,3.2,3.2,0,0,1,1.318-.262,3.255,3.255,0,0,1,1.338.262,2.827,2.827,0,0,1,1,.728,3.237,3.237,0,0,1,.629,1.114A4.437,4.437,0,0,1,155.61,667.443Zm-.873,0a3.765,3.765,0,0,0-.177-1.208,2.538,2.538,0,0,0-.49-.873,2.037,2.037,0,0,0-.736-.53,2.4,2.4,0,0,0-1.821,0,2.024,2.024,0,0,0-.737.53,2.518,2.518,0,0,0-.49.873,3.764,3.764,0,0,0-.178,1.208,3.7,3.7,0,0,0,.18,1.206,2.57,2.57,0,0,0,.494.87,2.005,2.005,0,0,0,.735.528,2.366,2.366,0,0,0,.916.177,2.3,2.3,0,0,0,.906-.177,2.024,2.024,0,0,0,.731-.528,2.536,2.536,0,0,0,.49-.87A3.747,3.747,0,0,0,154.737,667.443Zm-10.356-1.6a.922.922,0,0,0,.123.5,1,1,0,0,0,.328.322,1.97,1.97,0,0,0,.476.208c.18.054.369.105.566.153.263.064.523.135.778.213a2.467,2.467,0,0,1,.683.323,1.554,1.554,0,0,1,.485.535,1.73,1.73,0,0,1,.185.848,1.957,1.957,0,0,1-.2.911,1.677,1.677,0,0,1-.542.629,2.42,2.42,0,0,1-.83.366,4.408,4.408,0,0,1-1.057.12,4.537,4.537,0,0,1-.54-.033c-.183-.021-.36-.052-.526-.089a4.214,4.214,0,0,1-.454-.127,1.786,1.786,0,0,1-.321-.142v-.757a3.126,3.126,0,0,0,.411.169q.229.075.473.13c.163.035.325.063.492.083a3.758,3.758,0,0,0,.466.03,3.572,3.572,0,0,0,.68-.061,1.707,1.707,0,0,0,.565-.2,1.049,1.049,0,0,0,.387-.388,1.211,1.211,0,0,0,.142-.617.926.926,0,0,0-.125-.5,1.031,1.031,0,0,0-.333-.328,1.991,1.991,0,0,0-.48-.212c-.18-.053-.371-.1-.57-.15-.265-.062-.522-.13-.774-.206a2.492,2.492,0,0,1-.675-.317,1.532,1.532,0,0,1-.477-.523,1.656,1.656,0,0,1-.18-.818,2.016,2.016,0,0,1,.182-.89,1.74,1.74,0,0,1,.5-.616,2.1,2.1,0,0,1,.734-.361,3.361,3.361,0,0,1,.9-.116,4.656,4.656,0,0,1,1.012.1,4.705,4.705,0,0,1,.861.272v.766a5.967,5.967,0,0,0-.87-.289,4.149,4.149,0,0,0-.963-.116,2.4,2.4,0,0,0-.669.083,1.3,1.3,0,0,0-.473.239.965.965,0,0,0-.279.374A1.282,1.282,0,0,0,144.381,665.838Z" transform="translate(-51.915 -437.027)" fill="#464749"/>
  </g>
</svg>
